<svg xmlns="http://www.w3.org/2000/svg" height="24px" width="24px" viewBox="0 0 24 24">
    <path d="M 20.433594 3.484375 C 18.179688 1.238281 15.179688 0 11.988281 0 C 8.804688 0 5.800781 1.238281 3.53125 3.480469 C 1.257812 5.730469 0.00390625 8.722656 0 11.890625 L 0 11.894531 C 0 13.8125 0.503906 15.746094 1.460938 17.511719 L 0.03125 24 L 6.597656 22.507812 C 8.257812 23.34375 10.113281 23.785156 11.984375 23.789062 L 11.988281 23.789062 C 15.171875 23.789062 18.175781 22.550781 20.445312 20.304688 C 22.722656 18.054688 23.976562 15.066406 23.976562 11.898438 C 23.976562 8.75 22.71875 5.761719 20.433594 3.484375 Z M 11.988281 21.914062 L 11.984375 21.914062 C 10.304688 21.914062 8.640625 21.492188 7.171875 20.695312 L 6.859375 20.527344 L 2.496094 21.519531 L 3.445312 17.210938 L 3.261719 16.894531 C 2.351562 15.328125 1.875 13.597656 1.875 11.894531 C 1.875 6.371094 6.414062 1.875 11.988281 1.875 C 14.679688 1.875 17.210938 2.917969 19.113281 4.8125 C 21.042969 6.734375 22.105469 9.25 22.105469 11.898438 C 22.101562 17.421875 17.5625 21.914062 11.988281 21.914062 Z M 11.988281 21.914062 "/>
    <path d="M 8.726562 6.648438 L 8.199219 6.648438 C 8.015625 6.648438 7.71875 6.71875 7.46875 6.992188 C 7.21875 7.265625 6.507812 7.925781 6.507812 9.269531 C 6.507812 10.617188 7.492188 11.914062 7.628906 12.097656 C 7.765625 12.28125 9.527344 15.128906 12.3125 16.222656 C 14.628906 17.132812 15.101562 16.953125 15.605469 16.90625 C 16.105469 16.863281 17.226562 16.246094 17.453125 15.609375 C 17.683594 14.96875 17.683594 14.421875 17.613281 14.308594 C 17.546875 14.195312 17.363281 14.125 17.089844 13.988281 C 16.816406 13.851562 15.472656 13.179688 15.21875 13.089844 C 14.96875 13 14.785156 12.953125 14.601562 13.226562 C 14.417969 13.5 13.882812 14.132812 13.722656 14.3125 C 13.5625 14.496094 13.402344 14.519531 13.125 14.382812 C 12.851562 14.246094 11.976562 13.953125 10.929688 13.019531 C 10.117188 12.296875 9.550781 11.371094 9.390625 11.097656 C 9.230469 10.824219 9.371094 10.675781 9.511719 10.539062 C 9.632812 10.417969 9.800781 10.25 9.9375 10.09375 C 10.074219 9.933594 10.113281 9.816406 10.203125 9.636719 C 10.296875 9.453125 10.25 9.292969 10.179688 9.15625 C 10.113281 9.019531 9.585938 7.667969 9.34375 7.128906 C 9.136719 6.671875 8.921875 6.65625 8.726562 6.648438 Z M 8.726562 6.648438 "/>
</svg>