<svg xmlns="http://www.w3.org/2000/svg" width="231.36" height="231.36" version="1.1" viewBox="0 0 61.214 61.214">
   <g display="inline" transform="translate(-60.592 125.747)">
      <g fill="#d25087" fillOpacity="1" stroke="none" strokeDasharray="none" strokeLinecap="butt" strokeMiterlimit="4" strokeOpacity="1">
         <path strokeWidth="1.385" d="M86.783 0l12.582 95.617L140.738 0zm-3.217 3.227L0 196.36h55.775l40.795-94.285z" transform="matrix(.26458 0 0 .26458 69.162 -121.117)"></path>
         <path strokeWidth="0.367" d="M91.642-121.117l5.331 40.51c.044.066.083.147.128.212a29.917 29.917 0 002.336 2.944 28.63 28.63 0 004.856 4.287 27.663 27.663 0 002.323 1.452 26.82 26.82 0 002.12 1.065c1.325.592 2.45.963 3.245 1.186.793.223 1.255.298 1.255.298l-6.837-51.954z"></path>
      </g>
   </g>
</svg>