<?xml version="1.0" encoding="iso-8859-1"?>
<!-- Generator: Adobe Illustrator 19.0.0, SVG Export Plug-In . SVG Version: 6.00 Build 0)  -->
<svg version="1.1" id="Capa_1" xmlns="http://www.w3.org/2000/svg" xmlns:xlink="http://www.w3.org/1999/xlink" x="0px" y="0px"
	 viewBox="0 0 511.976 511.976" style="enable-background:new 0 0 511.976 511.976;" xml:space="preserve">
<g>
	<g>
		<path d="M397.398,199.272c-2.944-4.576-8-7.296-13.408-7.296h-112v-176c0-7.552-5.28-14.08-12.672-15.648
			c-7.456-1.504-14.88,2.272-17.952,9.152l-128,288c-2.208,4.928-1.728,10.688,1.216,15.2c2.944,4.544,8,7.296,13.408,7.296h112v176
			c0,7.552,5.28,14.08,12.672,15.648c1.12,0.224,2.24,0.352,3.328,0.352c6.208,0,12-3.616,14.624-9.472l128-288
			C400.79,209.544,400.374,203.816,397.398,199.272z M271.99,420.584V303.976c0-8.832-7.168-16-16-16H152.63l87.36-196.608v116.608
			c0,8.832,7.168,16,16,16h103.36L271.99,420.584z"/>
	</g>
</g>
<g>
</g>
<g>
</g>
<g>
</g>
<g>
</g>
<g>
</g>
<g>
</g>
<g>
</g>
<g>
</g>
<g>
</g>
<g>
</g>
<g>
</g>
<g>
</g>
<g>
</g>
<g>
</g>
<g>
</g>
</svg>
