<svg
      xmlns="http://www.w3.org/2000/svg"
      version="1.1"
      viewBox="0 0 512 512"
    >
      <path d="M38.18 65.541a7.5 7.5 0 00-7.5 7.5v324.527a7.5 7.5 0 007.5 7.5h435.642a7.5 7.5 0 007.5-7.5V73.041a7.5 7.5 0 00-7.5-7.5zm7.5 15h420.642v309.527l-420.642.002z"></path>
      <path d="M17.5 34.936c-9.649 0-17.5 7.85-17.5 17.5v365.74c0 9.649 7.851 17.5 17.5 17.5h477c9.649 0 17.5-7.851 17.5-17.5V52.436c0-9.65-7.851-17.5-17.5-17.5zm0 15h477c1.379 0 2.5 1.122 2.5 2.5v365.74c0 1.378-1.121 2.5-2.5 2.5h-477a2.503 2.503 0 01-2.5-2.5V52.436c0-1.378 1.121-2.5 2.5-2.5z"></path>
      <path
        fill="#fff"
        fillOpacity="1"
        d="M355.389 365.518H383.389V457.866H355.389z"
      ></path>
      <path d="M398.389 356.793l.72.062c6.226.547 13.97 1.227 19.334-4.148 5.36-5.369 4.682-13.12 4.137-19.35-.587-6.685.046-8.514 5.184-12.785 13.229-11 13.475-22.778 0-33.98-5.138-4.274-5.768-6.101-5.184-12.787 1.468-16.777-6.368-25-23.47-23.496-6.676.586-8.487-.049-12.743-5.188-10.983-13.26-22.77-13.505-33.957 0-4.256 5.138-6.065 5.776-12.74 5.188-16.79-1.475-24.97 6.405-23.473 23.496.584 6.687-.043 8.513-5.181 12.787-13.23 10.999-13.474 22.78 0 33.98 5.138 4.274 5.765 6.101 5.181 12.787-1.575 17.97 7.009 24.918 24.192 23.434v112.832c1.068 6.164 4.622 8.432 10.662 6.8l18.338-8.529 18.336 8.53c4.537 2.11 10.664-1.226 10.664-6.801zm-29.002-106.67c1.453 0 2.907 1.523 5.427 4.565 7.38 8.907 14.088 11.571 25.606 10.56 7.509-.661 7.873-.26 7.217 7.244-1.008 11.517 1.64 18.237 10.535 25.631 6.085 5.061 6.089 5.852 0 10.912-8.895 7.395-11.546 14.112-10.537 25.63.659 7.503.294 7.905-7.213 7.245-4.711-.414-10.056-.884-14.76 1.07-4.553 1.891-7.754 5.756-10.85 9.493-1.457 1.76-4.117 4.972-5.425 5.547-1.307-.575-3.968-3.787-5.426-5.547-3.095-3.736-6.296-7.602-10.85-9.493-4.854-1.48-9.773-1.837-14.756-1.07-7.508.661-7.872.26-7.216-7.244 1.008-11.517-1.64-18.237-10.535-25.63-6.086-5.062-6.085-5.852 0-10.913 8.895-7.394 11.544-14.113 10.535-25.629-.656-7.505-.292-7.903 7.216-7.246 11.518 1.015 18.229-1.654 25.606-10.56 2.52-3.043 3.973-4.565 5.426-4.565zm-13.998 115.395c3.559 3.913 7.95 7.545 14 7.545s10.44-3.632 14-7.545v92.347l-10.838-5.04a7.499 7.499 0 00-6.326 0l-10.836 5.04z"></path>
      <path d="M97.263 143.321H355.81c9.697 0 9.697-15 0-15H97.263c-9.698 0-9.698 15 0 15z"></path>
      <path d="M422.237 181.439a7.5 7.5 0 00-7.5-7.5H97.263c-9.697 0-9.697 15 0 15h317.475a7.5 7.5 0 007.499-7.5z"></path>
      <path d="M285.137 227.056a7.5 7.5 0 00-7.5-7.5H97.263c-9.697 0-9.697 15 0 15h180.374a7.5 7.5 0 007.5-7.5z"></path>
      <path d="M186.651 331.598c-4.089.007-8.179.012-12.268.015-7.867.006-12.198-2.091-13.805-10.433-1.467-7.615-12.451-6.645-14.464 0-.891 2.943-5.391 11.368-9.322 10.679-2.083-.365-2.993-3.578-3.763-5.242-1.499-3.239-2.591-6.672-3.526-10.112-3.948-14.534-4.736-29.709-7.206-44.517-1.432-8.587-14.521-6.159-14.732 1.994-.672 25.971-4.918 51.586-14.164 75.929-3.431 9.033 11.064 12.939 14.464 3.988 3.565-9.386 6.395-18.997 8.591-28.751 1.178 3.554 2.583 7.04 4.298 10.431 4.38 8.656 13.313 13.777 22.871 9.927 3.411-1.374 6.523-3.776 9.172-6.699 7.096 8.183 17.653 7.812 27.502 7.8 14.847-.019 29.694-.054 44.542-.095 9.651-.027 9.669-15.027 0-15-12.73.036-25.46.065-38.19.086z"></path>
      <path d="M369.388 332.874c16.153 0 29.295-13.141 29.295-29.294s-13.142-29.294-29.295-29.294c-16.152 0-29.294 13.142-29.294 29.294s13.141 29.294 29.294 29.294zm0-43.588c7.882 0 14.295 6.413 14.295 14.294s-6.413 14.294-14.295 14.294-14.294-6.412-14.294-14.294c0-7.882 6.412-14.294 14.294-14.294z"></path>
    </svg>